<svg width="8" height="14" viewBox="0 0 8 14" fill="none" xmlns="http://www.w3.org/2000/svg">
<path d="M7.344 9.088C7.344 5.328 2.416 6.432 2.416 4.112C2.416 3.376 2.96 2.848 3.968 2.848C4.848 2.848 5.472 3.296 5.728 4.256L7.2 3.696C6.896 2.544 6.016 1.792 4.768 1.584V0.112H3.392V1.568C1.792 1.776 0.88 2.816 0.88 4.24C0.88 7.744 5.76 6.672 5.76 9.136C5.76 10 5.104 10.544 4.048 10.544C2.944 10.544 2.16 9.936 1.904 8.864L0.432 9.44C0.832 10.848 1.92 11.696 3.36 11.856V13.296H4.736V11.824C6.352 11.568 7.344 10.528 7.344 9.088Z" fill="#2D405A"/>
</svg>
