<svg width="24" height="24" viewBox="0 0 24 24" fill="none" xmlns="http://www.w3.org/2000/svg">
<path d="M18.8742 13.8841H18.9407C19.2512 12.9749 19.4286 11.977 19.4286 10.957C19.4286 6.01193 15.4149 1.97607 10.4477 1.97607C5.48048 1.97607 1.4668 6.01193 1.4668 10.957C1.4668 15.902 5.50266 19.9379 10.4477 19.9379C11.8891 19.9379 13.2196 19.6052 14.4392 19.0065C14.417 18.7848 14.3948 18.563 14.3948 18.3634C14.3948 15.8798 16.3906 13.8841 18.8742 13.8841ZM11.2238 15.4142V16.5451C11.2238 16.656 11.1351 16.7668 11.0021 16.7668H9.89331C9.78244 16.7668 9.67156 16.6781 9.67156 16.5451V15.4363C8.56281 15.3698 7.65363 14.505 7.54276 13.3962C7.52058 13.2632 7.63146 13.1523 7.76451 13.1523H8.87326C8.96196 13.1523 9.05066 13.2188 9.07284 13.3075C9.13936 13.6623 9.44981 13.9062 9.80461 13.9062H10.7803C11.3569 13.9062 11.8669 13.4849 11.9334 12.9084C11.9999 12.2653 11.4899 11.7109 10.8468 11.7109H10.1372C8.76239 11.7109 7.54276 10.713 7.38753 9.33819C7.23231 7.89681 8.29671 6.65501 9.64939 6.47761V5.36886C9.64939 5.25798 9.73809 5.14711 9.87114 5.14711H10.9799C11.0908 5.14711 11.2016 5.23581 11.2016 5.36886V6.47761C12.3326 6.54413 13.2417 7.40896 13.3526 8.51771C13.3526 8.65076 13.2639 8.76164 13.1309 8.76164H12.0221C11.9334 8.76164 11.8225 8.69511 11.8225 8.60641C11.756 8.25161 11.4456 8.00769 11.0686 8.00769H10.0929C9.51634 8.00769 8.98414 8.42901 8.93979 9.00556C8.87326 9.64864 9.38329 10.2252 10.0264 10.2252H10.869C12.3991 10.2252 13.6409 11.5557 13.4857 13.1079C13.3748 14.3054 12.3991 15.2146 11.2238 15.4142Z" fill="#C4CEFE"/>
<path opacity="0.5" d="M18.8737 14.6821C16.8558 14.6821 15.2148 16.3231 15.2148 18.341C15.2148 20.3589 16.8558 21.9999 18.8737 21.9999C20.8917 21.9999 22.5326 20.3589 22.5326 18.341C22.5326 16.3231 20.8917 14.6821 18.8737 14.6821ZM20.4482 17.6536L18.785 19.6272C18.7185 19.7159 18.6076 19.7602 18.4968 19.7602C18.3859 19.7602 18.2972 19.7159 18.2085 19.6272L17.2549 18.4962C17.1219 18.341 17.1441 18.1193 17.2993 17.9862C17.4545 17.8532 17.6763 17.8753 17.8093 18.0306L18.4968 18.851L19.8938 17.1879C20.0268 17.0327 20.2486 17.0105 20.4038 17.1436C20.559 17.2766 20.5812 17.4984 20.4482 17.6536Z" fill="#C4CEFE"/>
</svg>
