<svg width="24" height="24" viewBox="0 0 24 24" fill="none" xmlns="http://www.w3.org/2000/svg">
<path fill-rule="evenodd" clip-rule="evenodd" d="M12 24C18.627 24 24 18.627 24 12C24 5.37305 18.627 0 12 0C5.373 0 0 5.37305 0 12C0 18.627 5.373 24 12 24Z" fill="#009FCC"/>
<path d="M12.7416 7.26954C11.7884 7.26954 11.0393 7.64513 10.4943 8.3963C9.95086 9.14602 9.67766 10.1811 9.67766 11.5015C9.67766 12.8146 9.94352 13.8496 10.4782 14.6052C11.0114 15.3563 11.7487 15.7319 12.6887 15.7319C13.429 15.7319 14.0312 15.5237 14.4954 15.1088C14.961 14.694 15.2401 14.1073 15.3326 13.3517H18C17.884 14.8191 17.3567 15.9619 16.4151 16.7801C15.4751 17.5953 14.2325 18 12.6887 18C11.524 18 10.5149 17.738 9.66003 17.2153C8.80518 16.6869 8.14715 15.9357 7.68888 14.9633C7.2306 13.9923 7 12.8393 7 11.5087C7 10.1782 7.23354 9.02374 7.69769 8.04546C8.16184 7.06282 8.82574 6.30873 9.685 5.78611C10.5516 5.26204 11.5328 5 12.6285 5C13.7301 5 14.6658 5.19362 15.434 5.58231C16.1777 5.94008 16.8022 6.50194 17.2333 7.20112C17.6695 7.89989 17.9089 8.70056 17.9471 9.59877H15.3326C15.2504 8.87671 14.9801 8.3075 14.5218 7.89261C14.0636 7.47772 13.4702 7.26954 12.7416 7.26954Z" fill="white"/>
</svg>
