<svg width="23" height="23" viewBox="0 0 23 23" fill="none" xmlns="http://www.w3.org/2000/svg">
<path d="M17.1404 4.85547C18.0257 4.85547 18.737 4.14575 18.737 3.26359V1.59507C18.737 0.711316 18.0257 0 17.1404 0C16.2606 0 15.5469 0.711316 15.5469 1.59507V3.26359C15.5469 4.14575 16.2606 4.85547 17.1404 4.85547Z" fill="#4677F4"/>
<path d="M22.8127 4.36868C22.8116 3.48114 22.0918 2.76222 21.2043 2.76222H20.4038C19.9576 2.76222 19.5959 3.12393 19.5959 3.57013C19.5959 4.91213 18.5077 6.00106 17.1681 6.00106C15.8269 6.00106 14.7404 4.91213 14.7404 3.57013C14.7404 3.12393 14.3787 2.76222 13.9325 2.76222H9.06983C8.62363 2.76222 8.26192 3.12393 8.26192 3.57013C8.26192 4.91213 7.17539 6.00106 5.83419 6.00106C4.49139 6.00106 3.40645 4.91213 3.40645 3.57013C3.40645 3.12227 3.04643 2.7576 2.59861 2.75187L1.80699 2.74173C0.904126 2.73016 0.166016 3.45887 0.166016 4.36181V21.3794C0.166016 22.2741 0.891105 22.9995 1.78584 23H21.2157C22.1109 22.9969 22.8346 22.2698 22.8335 21.3746L22.8127 4.36868ZM21.2157 19.3876C21.2157 20.4922 20.3203 21.3866 19.2157 21.3866H3.78583C2.68126 21.3866 1.78584 20.4911 1.78584 19.3866V10.4296C1.78584 9.32502 2.68127 8.42959 3.78584 8.42959H19.2157C20.3203 8.42959 21.2157 9.32397 21.2157 10.4285C21.2157 12.8635 21.2157 16.9526 21.2157 19.3876Z" fill="#4677F4"/>
<path d="M5.80441 4.85547C6.68817 4.85547 7.40108 4.14575 7.40108 3.26359V1.59507C7.40108 0.711316 6.68817 0 5.80441 0C4.92545 0 4.21094 0.711316 4.21094 1.59507V3.26359C4.21094 4.14575 4.92545 4.85547 5.80441 4.85547Z" fill="#4677F4"/>
<path d="M6.15922 17.1786C6.49292 17.3606 7.25054 17.6672 8.01295 17.6672C8.97973 17.6672 9.46751 17.2034 9.46751 16.6142C9.46751 15.8207 8.68036 15.4638 7.86446 15.4638H7.10524V14.1274H7.83652C8.46321 14.1274 9.24797 13.8823 9.24797 13.2085C9.24797 12.7295 8.86557 12.3751 8.07203 12.3751C7.42378 12.3751 6.73881 12.6577 6.41788 12.8549L6.03707 11.5081C6.51927 11.2015 7.45891 10.9077 8.50233 10.9077C10.194 10.9077 11.1312 11.8003 11.1312 12.8892C11.1312 13.7362 10.657 14.41 9.67508 14.7389V14.7653C10.6307 14.9361 11.4043 15.6602 11.4043 16.7116C11.4043 18.1079 10.1661 19.1369 8.14547 19.1369C7.11482 19.1369 6.24783 18.8687 5.7832 18.5845L6.15922 17.1786Z" fill="#4677F4"/>
<path d="M15.0063 12.6958H14.9832L13.464 13.4175L13.1582 12.0204L15.2762 11.0425H16.8074V19.0035H15.0063V12.6958Z" fill="#4677F4"/>
</svg>
