<svg width="24" height="24" viewBox="0 0 24 24" fill="none" xmlns="http://www.w3.org/2000/svg">
<g id="Iconly/Light/Delete">
<g id="Delete">
<path id="Stroke 1" d="M19.3238 9.46777C19.3238 9.46777 18.7808 16.2028 18.4658 19.0398C18.3158 20.3948 17.4788 21.1888 16.1078 21.2138C13.4988 21.2608 10.8868 21.2638 8.27881 21.2088C6.95981 21.1818 6.13681 20.3778 5.98981 19.0468C5.67281 16.1848 5.13281 9.46777 5.13281 9.46777" stroke="#56606D" stroke-width="1.5" stroke-linecap="round" stroke-linejoin="round"/>
<path id="Stroke 3" d="M20.708 6.23926H3.75" stroke="#56606D" stroke-width="1.5" stroke-linecap="round" stroke-linejoin="round"/>
<path id="Stroke 5" d="M17.4406 6.23949C16.6556 6.23949 15.9796 5.68449 15.8256 4.91549L15.5826 3.69949C15.4326 3.13849 14.9246 2.75049 14.3456 2.75049H10.1126C9.53358 2.75049 9.02558 3.13849 8.87558 3.69949L8.63258 4.91549C8.47858 5.68449 7.80258 6.23949 7.01758 6.23949" stroke="#56606D" stroke-width="1.5" stroke-linecap="round" stroke-linejoin="round"/>
<line id="Line 28" x1="14.75" y1="10.75" x2="14.75" y2="16.25" stroke="#56606D" stroke-width="1.5" stroke-linecap="round" stroke-linejoin="round"/>
<line id="Line 29" x1="9.75" y1="10.75" x2="9.75" y2="16.25" stroke="#56606D" stroke-width="1.5" stroke-linecap="round" stroke-linejoin="round"/>
</g>
</g>
</svg>
