<svg width="40" height="40" viewBox="0 0 40 40" fill="none" xmlns="http://www.w3.org/2000/svg">
<rect width="40" height="40" rx="10" fill="#12CA9E"/>
<g clip-path="url(#clip0)">
<path d="M13.5977 17.1641C13.5977 20.7181 16.489 23.6094 20.043 23.6094C23.597 23.6094 26.4883 20.7181 26.4883 17.1641C26.4883 13.6101 23.597 10.7188 20.043 10.7188C16.489 10.7188 13.5977 13.6101 13.5977 17.1641ZM20.043 11.5781C23.1231 11.5781 25.6289 14.0839 25.6289 17.1641C25.6289 20.2442 23.1231 22.75 20.043 22.75C16.9628 22.75 14.457 20.2442 14.457 17.1641C14.457 14.0839 16.9628 11.5781 20.043 11.5781Z" fill="white"/>
<path d="M16.0637 16.3982L17.7292 18.0392L17.346 20.3456C17.3194 20.5063 17.3857 20.6681 17.5174 20.7637C17.649 20.8594 17.8234 20.8723 17.9679 20.7975L20.043 19.7199L22.1179 20.7975C22.2613 20.8718 22.4357 20.8602 22.5684 20.7637C22.7002 20.6681 22.7665 20.5063 22.7398 20.3456L22.3566 18.0392L24.0222 16.3982C24.1381 16.2841 24.1796 16.1142 24.1292 15.9593C24.0789 15.8045 23.9455 15.6916 23.7845 15.6672L21.4731 15.3193L20.4272 13.2277C20.3545 13.0822 20.2057 12.9902 20.043 12.9902C19.8802 12.9902 19.7315 13.0822 19.6586 13.2277L18.6128 15.3193L16.3014 15.6672C16.1404 15.6914 16.007 15.8045 15.9566 15.9593C15.9062 16.1142 15.9479 16.2841 16.0637 16.3982ZM18.9614 16.1359C19.0997 16.115 19.2192 16.0283 19.2818 15.9032L20.043 14.3807L20.8042 15.9032C20.8668 16.0283 20.9863 16.115 21.1246 16.1359L22.8069 16.3891L21.5946 17.5834C21.4951 17.6816 21.4494 17.822 21.4722 17.96L21.7512 19.6387L20.2409 18.8545C20.179 18.8222 20.111 18.8061 20.043 18.8061C19.975 18.8061 19.9071 18.8222 19.8449 18.8545L18.3347 19.6387L18.6136 17.96C18.6366 17.822 18.591 17.6816 18.4913 17.5834L17.2791 16.3891L18.9614 16.1359Z" fill="white"/>
<path d="M20.4727 9.42969C20.4727 9.66702 20.2803 9.85938 20.043 9.85938C19.8056 9.85938 19.6133 9.66702 19.6133 9.42969C19.6133 9.19235 19.8056 9 20.043 9C20.2803 9 20.4727 9.19235 20.4727 9.42969Z" fill="white"/>
<path d="M18.0179 9.25273C14.4033 10.1754 11.8789 13.4284 11.8789 17.1635C11.8789 19.4833 12.8543 21.6692 14.5665 23.2173L11.9778 27.7795C11.8945 27.9264 11.9049 28.1083 12.0043 28.2446C12.1037 28.3811 12.2735 28.4467 12.4388 28.4123L15.3787 27.8018L16.4119 30.7135C16.468 30.8719 16.6115 30.9829 16.779 30.9978C16.9465 31.0127 17.1072 30.9283 17.1903 30.7821L20.043 25.7668L22.8955 30.7821C22.9724 30.9172 23.1154 30.9993 23.2688 30.9993C23.2814 30.9993 23.2942 30.9988 23.3068 30.9978C23.4743 30.9829 23.6178 30.8717 23.674 30.7135L24.7071 27.8018L27.647 28.4123C27.8121 28.4465 27.9821 28.3809 28.0815 28.2446C28.181 28.1083 28.1913 27.9264 28.108 27.7795L25.5193 23.2173C27.2315 21.6692 28.2069 19.4833 28.2069 17.1635C28.2069 13.4284 25.6825 10.1754 22.0681 9.25273C21.8379 9.19399 21.6041 9.3328 21.5454 9.56275C21.4866 9.7927 21.6254 10.0267 21.8554 10.0854C25.0891 10.9109 27.3477 13.8215 27.3477 17.1635C27.3477 21.231 24.0443 24.4682 20.043 24.4682C16.0388 24.4682 12.7383 21.2283 12.7383 17.1635C12.7383 13.8215 14.9967 10.9109 18.2304 10.0854C18.4604 10.0267 18.5992 9.7927 18.5406 9.56275C18.4818 9.3328 18.248 9.19399 18.0179 9.25273ZM16.9078 29.5409L16.0633 27.1613C15.9915 26.9589 15.7813 26.8406 15.571 26.8842L13.1938 27.3778L15.2426 23.7671C16.4371 24.6356 17.8516 25.1646 19.3224 25.2955L16.9078 29.5409ZM24.5148 26.8842C24.3046 26.8406 24.0943 26.9589 24.0225 27.1613L23.1782 29.5409L20.7634 25.2955C22.2344 25.1646 23.6487 24.6356 24.8434 23.7671L26.8921 27.3778L24.5148 26.8842Z" fill="white"/>
</g>
<defs>
<clipPath id="clip0">
<rect width="22" height="22" fill="white" transform="translate(9 9)"/>
</clipPath>
</defs>
</svg>
