<svg width="22" height="22" viewBox="0 0 22 22" fill="none" xmlns="http://www.w3.org/2000/svg">
<path opacity="0.5" d="M20.1673 16.6147V17.7606C20.1673 17.9125 20.107 18.0582 19.9995 18.1657C19.8921 18.2731 19.7463 18.3335 19.5944 18.3335H2.97982C2.67592 18.3335 2.38448 18.2128 2.16959 17.9979C1.95471 17.783 1.83398 17.4916 1.83398 17.1877V5.15641C1.83398 5.00447 1.89435 4.85874 2.00179 4.7513C2.10923 4.64386 2.25495 4.5835 2.4069 4.5835H3.55273C3.70468 4.5835 3.8504 4.64386 3.95785 4.7513C4.06529 4.85874 4.12565 5.00447 4.12565 5.15641V16.0418H19.5944C19.7463 16.0418 19.8921 16.1022 19.9995 16.2096C20.107 16.3171 20.1673 16.4628 20.1673 16.6147Z" fill="#C4CEFE"/>
<path d="M19.0214 6.30241V10.5295C19.0214 11.295 18.0958 11.6785 17.5533 11.1382L16.3931 9.97803L12.9556 13.4155C12.7408 13.6304 12.4494 13.751 12.1455 13.751C11.8416 13.751 11.5502 13.6304 11.3354 13.4155L8.7089 10.7873L7.05961 12.4369C7.00641 12.4901 6.94325 12.5323 6.87373 12.5611C6.80421 12.5899 6.7297 12.6048 6.65445 12.6048C6.57921 12.6048 6.5047 12.5899 6.43518 12.5611C6.36566 12.5323 6.3025 12.4901 6.24929 12.4369L5.43933 11.627C5.38612 11.5738 5.34391 11.5106 5.31511 11.4411C5.28631 11.3716 5.27148 11.297 5.27148 11.2218C5.27148 11.1465 5.28631 11.072 5.31511 11.0025C5.34391 10.933 5.38612 10.8698 5.43933 10.8166L7.89894 8.35703C8.11381 8.1422 8.40522 8.02151 8.70908 8.02151C9.01293 8.02151 9.30434 8.1422 9.51922 8.35703L12.1464 10.9842L14.7736 8.35667L13.6145 7.19759C13.0731 6.65619 13.4566 5.72949 14.2232 5.72949H18.4485C18.6004 5.72949 18.7461 5.78985 18.8536 5.8973C18.961 6.00474 19.0214 6.15046 19.0214 6.30241Z" fill="#C4CEFE"/>
</svg>
