<svg width="24" height="24" viewBox="0 0 24 24" fill="none" xmlns="http://www.w3.org/2000/svg">
<path d="M16.9395 13.749C18.6633 12.3239 19.7637 10.1699 19.7637 7.76367C19.7637 3.48277 16.2809 0 12 0C7.71909 0 4.23633 3.48277 4.23633 7.76367C4.23633 10.1699 5.33667 12.3239 7.06055 13.749V16.2743H4.89258V18.234L12 24L19.1074 18.2339V16.2743H16.9395V13.749ZM5.64258 7.76367C5.64258 4.25817 8.4945 1.40625 12 1.40625C15.5055 1.40625 18.3574 4.25817 18.3574 7.76367C18.3574 11.2692 15.5055 14.1211 12 14.1211C8.4945 14.1211 5.64258 11.2692 5.64258 7.76367ZM17.5575 17.6805L12 22.1892L6.4425 17.6805H8.4668V14.6758C9.5272 15.22 10.7284 15.5273 12 15.5273C13.2716 15.5273 14.4728 15.22 15.5332 14.6758V17.6805H17.5575V17.6805Z" fill="#ED1B1B"/>
<path d="M11.5989 8.46655H12.403C12.8226 8.46655 13.164 8.8079 13.164 9.22747C13.164 9.64705 12.8226 9.9884 12.403 9.9884H11.5846C11.1793 9.9884 10.8496 9.65868 10.8496 9.2534H9.44331C9.44331 10.3368 10.2523 11.2342 11.2978 11.3749V12.376H12.704V11.3732C13.757 11.2262 14.5702 10.3202 14.5702 9.22743C14.5702 8.03244 13.598 7.06025 12.403 7.06025H11.5988C11.1792 7.06025 10.8379 6.71891 10.8379 6.29933C10.8379 5.87975 11.1792 5.53841 11.5988 5.53841H12.3846C12.8047 5.53841 13.1464 5.88013 13.1464 6.30022H14.5527C14.5527 5.21329 13.7486 4.31085 12.704 4.15588V3.15088H11.2978V4.15363C10.2448 4.30068 9.43164 5.20663 9.43164 6.29943C9.43169 7.49436 10.4039 8.46655 11.5989 8.46655Z" fill="#ED1B1B"/>
</svg>
