<svg width="40" height="40" viewBox="0 0 40 40" fill="none" xmlns="http://www.w3.org/2000/svg">
<rect width="40" height="40" rx="10" fill="#EB5757"/>
<path d="M24.9395 21.749C26.6633 20.3239 27.7637 18.1699 27.7637 15.7637C27.7637 11.4828 24.2809 8 20 8C15.7191 8 12.2363 11.4828 12.2363 15.7637C12.2363 18.1699 13.3367 20.3239 15.0605 21.749V24.2743H12.8926V26.234L20 32L27.1074 26.2339V24.2743H24.9395V21.749ZM13.6426 15.7637C13.6426 12.2582 16.4945 9.40625 20 9.40625C23.5055 9.40625 26.3574 12.2582 26.3574 15.7637C26.3574 19.2692 23.5055 22.1211 20 22.1211C16.4945 22.1211 13.6426 19.2692 13.6426 15.7637ZM25.5575 25.6805L20 30.1892L14.4425 25.6805H16.4668V22.6758C17.5272 23.22 18.7284 23.5273 20 23.5273C21.2716 23.5273 22.4728 23.22 23.5332 22.6758V25.6805H25.5575V25.6805Z" fill="white"/>
<path d="M19.5989 16.467H20.403C20.8226 16.467 21.164 16.8084 21.164 17.228C21.164 17.6475 20.8226 17.9889 20.403 17.9889H19.5846C19.1793 17.9889 18.8496 17.6592 18.8496 17.2539H17.4433C17.4433 18.3373 18.2523 19.2347 19.2978 19.3754V20.3765H20.704V19.3737C21.757 19.2267 22.5702 18.3207 22.5702 17.2279C22.5702 16.0329 21.598 15.0607 20.403 15.0607H19.5988C19.1792 15.0607 18.8379 14.7194 18.8379 14.2998C18.8379 13.8802 19.1792 13.5389 19.5988 13.5389H20.3846C20.8047 13.5389 21.1464 13.8806 21.1464 14.3007H22.5527C22.5527 13.2138 21.7486 12.3113 20.704 12.1564V11.1514H19.2978V12.1541C18.2448 12.3012 17.4316 13.2071 17.4316 14.2999C17.4317 15.4949 18.4039 16.467 19.5989 16.467Z" fill="white"/>
</svg>
