<svg width="22" height="22" viewBox="0 0 22 22" fill="none" xmlns="http://www.w3.org/2000/svg">
<g clip-path="url(#clip0)">
<path d="M4.59766 8.16407C4.59766 11.7181 7.48899 14.6094 11.043 14.6094C14.597 14.6094 17.4883 11.7181 17.4883 8.16407C17.4883 4.61008 14.597 1.71875 11.043 1.71875C7.48899 1.71875 4.59766 4.61008 4.59766 8.16407ZM11.043 2.57813C14.1231 2.57813 16.6289 5.08391 16.6289 8.16407C16.6289 11.2442 14.1231 13.75 11.043 13.75C7.96282 13.75 5.45703 11.2442 5.45703 8.16407C5.45703 5.08391 7.96282 2.57813 11.043 2.57813Z" fill="#12CA9E"/>
<path d="M7.06369 7.3982L8.72924 9.03924L8.34604 11.3456C8.31935 11.5063 8.38565 11.6681 8.51741 11.7637C8.649 11.8594 8.8234 11.8723 8.96791 11.7975L11.043 10.7199L13.1179 11.7975C13.2613 11.8718 13.4357 11.8602 13.5684 11.7637C13.7002 11.6681 13.7665 11.5063 13.7398 11.3456L13.3566 9.03924L15.0222 7.3982C15.1381 7.28406 15.1796 7.1142 15.1292 6.95928C15.0789 6.80453 14.9455 6.69156 14.7845 6.66723L12.4731 6.31928L11.4272 4.22774C11.3545 4.08221 11.2057 3.99023 11.043 3.99023C10.8802 3.99023 10.7315 4.08221 10.6586 4.22774L9.61278 6.31928L7.30136 6.66723C7.14039 6.6914 7.00696 6.80453 6.9566 6.95928C6.90625 7.1142 6.94787 7.28406 7.06369 7.3982ZM9.9614 7.13586C10.0997 7.11504 10.2192 7.02827 10.2818 6.90322L11.043 5.38068L11.8042 6.90322C11.8668 7.02827 11.9863 7.11504 12.1246 7.13586L13.8069 7.38914L12.5946 8.58337C12.4951 8.68156 12.4494 8.82205 12.4722 8.96002L12.7512 10.6387L11.2409 9.85447C11.179 9.82225 11.111 9.80613 11.043 9.80613C10.975 9.80613 10.9071 9.82225 10.8449 9.85447L9.33466 10.6387L9.61362 8.96002C9.63662 8.82205 9.59096 8.68156 9.49126 8.58337L8.27907 7.38914L9.9614 7.13586Z" fill="#12CA9E"/>
<path d="M11.4727 0.429688C11.4727 0.667024 11.2803 0.859376 11.043 0.859376C10.8056 0.859376 10.6133 0.667024 10.6133 0.429688C10.6133 0.192353 10.8056 0 11.043 0C11.2803 0 11.4727 0.192353 11.4727 0.429688Z" fill="#12CA9E"/>
<path d="M9.01791 0.253221C5.40332 1.17587 2.87891 4.42891 2.87891 8.16401C2.87891 10.4838 3.85426 12.6697 5.56647 14.2177L2.97777 18.78C2.89452 18.9269 2.90492 19.1088 3.00429 19.2451C3.10365 19.3815 3.27351 19.4472 3.43884 19.4128L6.37868 18.8023L7.41195 21.7139C7.46801 21.8724 7.61152 21.9833 7.77903 21.9983C7.94654 22.0132 8.10717 21.9288 8.19025 21.7826L11.043 16.7673L13.8955 21.7826C13.9724 21.9177 14.1154 21.9998 14.2688 21.9998C14.2814 21.9998 14.2942 21.9993 14.3068 21.9983C14.4743 21.9833 14.6178 21.8722 14.674 21.7139L15.7071 18.8023L18.647 19.4128C18.8121 19.447 18.9821 19.3814 19.0815 19.2451C19.181 19.1088 19.1913 18.9269 19.108 18.78L16.5193 14.2177C18.2315 12.6697 19.2069 10.4838 19.2069 8.16401C19.2069 4.42891 16.6825 1.17587 13.0681 0.253221C12.8379 0.194474 12.6041 0.333284 12.5454 0.563234C12.4866 0.793184 12.6254 1.02716 12.8554 1.08591C16.0891 1.91138 18.3477 4.82201 18.3477 8.16401C18.3477 12.2314 15.0443 15.4687 11.043 15.4687C7.03883 15.4687 3.73828 12.2288 3.73828 8.16401C3.73828 4.82201 5.99666 1.91138 9.2304 1.08591C9.46035 1.02716 9.59916 0.793184 9.54058 0.563234C9.48184 0.333284 9.24803 0.194474 9.01791 0.253221ZM7.90777 20.5414L7.06333 18.1618C6.99149 17.9594 6.78135 17.8411 6.57104 17.8847L4.19382 18.3783L6.24256 14.7676C7.43713 15.636 8.85157 16.1651 10.3224 16.296L7.90777 20.5414ZM15.5148 17.8847C15.3046 17.8411 15.0943 17.9594 15.0225 18.1618L14.1782 20.5414L11.7634 16.296C13.2344 16.1651 14.6487 15.636 15.8434 14.7676L17.8921 18.3783L15.5148 17.8847Z" fill="#12CA9E"/>
</g>
<defs>
<clipPath id="clip0">
<rect width="22" height="22" fill="white"/>
</clipPath>
</defs>
</svg>
