<svg width="26" height="18" viewBox="0 0 26 18" fill="none" xmlns="http://www.w3.org/2000/svg">
<path d="M26 16.7078C26 17.0487 25.8644 17.3758 25.623 17.6169C25.3816 17.858 25.0542 17.9935 24.7129 17.9935H14.4157C14.2367 18.0114 14.056 17.9917 13.8851 17.9356C13.7142 17.8794 13.557 17.7882 13.4236 17.6676C13.2903 17.5471 13.1836 17.4 13.1107 17.2358C13.0377 17.0715 13 16.8939 13 16.7142C13 16.5345 13.0377 16.3568 13.1107 16.1926C13.1836 16.0284 13.2903 15.8813 13.4236 15.7607C13.557 15.6402 13.7142 15.5489 13.8851 15.4928C14.056 15.4367 14.2367 15.417 14.4157 15.4349L24.7129 15.4349C25.052 15.4349 25.3775 15.5686 25.6185 15.8069C25.8595 16.0453 25.9966 16.369 26 16.7078Z" fill="white"/>
<path d="M26 8.99364C26 9.33463 25.8637 9.66166 25.6211 9.90278C25.3785 10.1439 25.0495 10.2794 24.7065 10.2794L1.42273 10.2794C1.24287 10.2973 1.06122 10.2776 0.8895 10.2215C0.717779 10.1653 0.559799 10.0741 0.425747 9.95353C0.291695 9.83299 0.184549 9.68587 0.111218 9.52164C0.0378872 9.35742 0 9.17974 0 9.00007C0 8.8204 0.0378872 8.64272 0.111218 8.4785C0.184549 8.31427 0.291695 8.16715 0.425747 8.04661C0.559799 7.92608 0.717779 7.83481 0.8895 7.77868C1.06122 7.72256 1.24287 7.70284 1.42273 7.72078L24.7065 7.72078C25.0473 7.72077 25.3744 7.85446 25.6166 8.0928C25.8588 8.33115 25.9966 8.65488 26 8.99364Z" fill="white"/>
<path d="M24.5709 2.565C24.7517 2.58294 24.9343 2.56322 25.1068 2.5071C25.2794 2.45098 25.4382 2.35971 25.5729 2.23917C25.7076 2.11864 25.8153 1.97151 25.889 1.80729C25.9627 1.64306 26.0008 1.46539 26.0008 1.28571C26.0008 1.10604 25.9627 0.928365 25.889 0.764141C25.8153 0.599918 25.7076 0.452793 25.5729 0.332257C25.4382 0.211721 25.2794 0.12045 25.1068 0.0643289C24.9343 0.00820799 24.7517 -0.011516 24.5709 0.00642871L8.97094 0.00642871C8.65025 0.0382649 8.35295 0.186785 8.13673 0.423171C7.92051 0.659557 7.80078 0.966953 7.80078 1.28571C7.80078 1.60448 7.92051 1.91187 8.13673 2.14826C8.35295 2.38464 8.65025 2.53316 8.97094 2.565L24.5709 2.565Z" fill="white"/>
</svg>
