<svg width="24" height="24" viewBox="0 0 24 24" fill="none" xmlns="http://www.w3.org/2000/svg">
<path d="M9.89838 22C11.6812 22 13.0616 21.8353 14.1689 21.4987C14.1454 21.3772 14.1297 21.2529 14.1297 21.125C14.1297 20.5535 14.3759 20.0376 14.7694 19.6667C14.3759 19.2957 14.1297 18.7798 14.1297 18.2083C14.1297 17.6368 14.3759 17.121 14.7694 16.75C14.3759 16.379 14.1297 15.8632 14.1297 15.2917C14.1297 14.7202 14.3759 14.2043 14.7694 13.8333C14.3759 13.4624 14.1297 12.9465 14.1297 12.375C14.1297 11.6999 14.475 11.1049 15 10.733C14.6405 10.4154 14.2564 10.1307 13.8534 9.88019C14.0171 9.68119 14.1297 9.44041 14.1297 9.16667C14.1297 8.52227 13.5885 8 12.9207 8H6.87604C6.20829 8 5.66711 8.52227 5.66711 9.16667C5.66711 9.4398 5.77934 9.67982 5.94211 9.87852C3.59539 11.3375 2 13.9793 2 16.75C2 21.456 6.52485 22 9.89838 22ZM9.89193 16.3376C8.89188 16.3376 8.07853 15.5526 8.07853 14.5876C8.07853 13.8257 8.58854 13.183 9.29392 12.9431V12.0833C9.29392 11.761 9.56435 11.5 9.89838 11.5C10.2324 11.5 10.5029 11.761 10.5029 12.0833V12.9471C11.2016 13.1903 11.7053 13.8304 11.7053 14.5876C11.7053 14.9101 11.4349 15.1709 11.1009 15.1709C10.7667 15.1709 10.4964 14.9101 10.4964 14.5876C10.4964 14.2657 10.2253 14.0042 9.89193 14.0042C9.55837 14.0042 9.28746 14.2657 9.28746 14.5876C9.28746 14.9095 9.55837 15.1709 9.89193 15.1709C10.8918 15.1709 11.7053 15.956 11.7053 16.9209C11.7053 17.678 11.2016 18.3182 10.5029 18.5615V19.0833C10.5029 19.4057 10.2324 19.6667 9.89838 19.6667C9.56435 19.6667 9.29392 19.4057 9.29392 19.0833V18.5653C8.58854 18.3256 8.07853 17.6827 8.07853 16.9209C8.07853 16.5985 8.3488 16.3376 8.68299 16.3376C9.01702 16.3376 9.28746 16.5985 9.28746 16.9209C9.28746 17.2428 9.55837 17.5042 9.89193 17.5042C10.2253 17.5042 10.4964 17.2428 10.4964 16.9209C10.4964 16.599 10.2253 16.3376 9.89193 16.3376Z" fill="#C4CEFE"/>
<g opacity="0.5">
<path d="M21.2541 20H16.7459C16.334 20 16 20.4477 16 21C16 21.5523 16.334 22 16.7459 22H21.2541C21.666 22 22 21.5523 22 21C22 20.4477 21.666 20 21.2541 20Z" fill="#C4CEFE"/>
<path d="M21.2541 17H16.7459C16.334 17 16 17.4477 16 18C16 18.5523 16.334 19 16.7459 19H21.2541C21.666 19 22 18.5523 22 18C22 17.4477 21.666 17 21.2541 17Z" fill="#C4CEFE"/>
<path d="M21.2541 14H16.7459C16.334 14 16 14.4477 16 15C16 15.5523 16.334 16 16.7459 16H21.2541C21.666 16 22 15.5523 22 15C22 14.4477 21.666 14 21.2541 14Z" fill="#C4CEFE"/>
<path d="M21.2541 11H16.7459C16.334 11 16 11.4477 16 12C16 12.5523 16.334 13 16.7459 13H21.2541C21.666 13 22 12.5523 22 12C22 11.4477 21.666 11 21.2541 11Z" fill="#C4CEFE"/>
</g>
<path d="M11.6091 3.22951C11.3723 2.5155 10.744 2 10 2C9.25506 2 8.6195 2.5139 8.38334 3.22951H6.57144C6.38781 3.22951 6.21534 3.32428 6.10775 3.4847C6.0006 3.64495 5.97099 3.85147 6.02962 4.03877L6.92173 7H13.0784L13.9704 4.03877C14.029 3.85147 13.9994 3.64495 13.8923 3.4847C13.7847 3.32428 13.6122 3.22951 13.4286 3.22951H11.6091Z" fill="#C4CEFE"/>
</svg>
