<svg width="22" height="22" viewBox="0 0 22 22" fill="none" xmlns="http://www.w3.org/2000/svg">
<path d="M1.83398 15.9433C1.83398 16.7566 2.5183 17.4165 3.36176 17.4165H18.6395C19.483 17.4165 20.1673 16.7566 20.1673 15.9433V10.5415H1.83398V15.9433ZM7.9451 13.8562C7.9451 13.6537 8.11697 13.4879 8.32704 13.4879H12.6557C12.8658 13.4879 13.0377 13.6537 13.0377 13.8562V15.0839C13.0377 15.2865 12.8658 15.4522 12.6557 15.4522H8.32704C8.11697 15.4522 7.9451 15.2865 7.9451 15.0839V13.8562ZM3.87102 13.8562C3.87102 13.6537 4.0429 13.4879 4.25297 13.4879H6.54463C6.7547 13.4879 6.92658 13.6537 6.92658 13.8562V15.0839C6.92658 15.2865 6.7547 15.4522 6.54463 15.4522H4.25297C4.0429 15.4522 3.87102 15.2865 3.87102 15.0839V13.8562ZM20.1673 5.13972V6.61293H1.83398V5.13972C1.83398 4.32638 2.5183 3.6665 3.36176 3.6665H18.6395C19.483 3.6665 20.1673 4.32638 20.1673 5.13972Z" fill="#C4CEFE"/>
</svg>
