<svg width="22" height="22" viewBox="0 0 22 22" fill="none" xmlns="http://www.w3.org/2000/svg">
<g clip-path="url(#clip0)">
<path d="M12.2889 1.97655L11.6444 1.97655L11.6444 0.644524C11.6444 0.28827 11.3561 -7.29047e-06 10.9998 -7.32161e-06L8.42171 -7.547e-06C8.06545 -7.57814e-06 7.77718 0.28827 7.77718 0.644523L7.77718 1.97655L7.13264 1.97655C6.87208 1.97655 6.63666 2.13326 6.53723 2.37436C6.43715 2.61541 6.49254 2.89239 6.67696 3.07681L9.25509 5.6979C9.50684 5.94966 9.91474 5.94966 10.1665 5.6979L12.7446 3.07681C12.929 2.89239 12.9844 2.61546 12.8844 2.37436C12.7849 2.13326 12.5495 1.97655 12.2889 1.97655Z" fill="white"/>
<path d="M15.5117 11.6875C12.664 11.6875 10.3555 13.996 10.3555 16.8438C10.3555 19.6914 12.664 22 15.5117 22C18.3595 22 20.668 19.6914 20.668 16.8438C20.668 13.996 18.3595 11.6875 15.5117 11.6875ZM16.5917 19.1633C16.4521 19.2331 16.3058 19.2881 16.156 19.3297V19.5078C16.156 19.8637 15.8675 20.1523 15.5115 20.1523C15.1556 20.1523 14.867 19.8637 14.867 19.5078V19.3498C14.5987 19.2823 14.3485 19.1687 14.1365 19.0098C13.8517 18.7962 13.794 18.3922 14.0076 18.1074C14.2212 17.8227 14.6252 17.7649 14.9099 17.9785C15.1678 18.1719 15.6636 18.1862 16.0152 18.0104C16.1566 17.9397 16.2328 17.8546 16.2328 17.8105C16.2328 17.7334 16.2328 17.7215 16.1471 17.6757C15.9789 17.586 15.6815 17.5308 15.3939 17.4775C15.01 17.4062 14.613 17.3326 14.269 17.149C13.7667 16.8808 13.5011 16.441 13.5011 15.8769C13.5011 15.3122 13.8398 14.819 14.4302 14.5238C14.5701 14.4538 14.7168 14.3984 14.867 14.3568V14.1796C14.867 13.8237 15.1556 13.5351 15.5115 13.5351C15.8675 13.5351 16.156 13.8237 16.156 14.1796V14.3375C16.4244 14.4051 16.6745 14.5187 16.8865 14.6777C17.1713 14.8913 17.229 15.2952 17.0154 15.58C16.8018 15.8648 16.3979 15.9225 16.1131 15.7089C15.8549 15.5152 15.3586 15.5009 15.0067 15.6768C14.8645 15.7478 14.7902 15.8312 14.7902 15.8769C14.7902 15.954 14.7902 15.9659 14.876 16.0117C15.0441 16.1015 15.3415 16.1566 15.6291 16.21C16.013 16.2812 16.41 16.3549 16.754 16.5385C17.2563 16.8066 17.5219 17.2465 17.5219 17.8105C17.5219 18.3747 17.1829 18.8678 16.5917 19.1633Z" fill="white"/>
<path d="M4.55469 9.10938H16.1562C16.5122 9.10938 16.8008 8.8208 16.8008 8.46484V7.82031C16.8008 7.46436 16.5122 7.17578 16.1562 7.17578H4.55469C4.19873 7.17578 3.91016 7.46436 3.91016 7.82031V8.46484C3.91016 8.8208 4.19873 9.10938 4.55469 9.10938Z" fill="white"/>
<path d="M2.62109 20.7109V21.3555C2.62109 21.7114 2.90967 22 3.26562 22H11.6844C10.9852 21.4794 10.4041 20.8226 9.96299 20.0664H3.26562C2.90967 20.0664 2.62109 20.355 2.62109 20.7109Z" fill="white"/>
<path d="M2.62109 14.2656V14.9102C2.62109 15.2661 2.90967 15.5547 3.26562 15.5547H9.19669C9.33861 14.8583 9.61563 14.2166 9.96299 13.6211H3.26562C2.90967 13.6211 2.62109 13.9097 2.62109 14.2656Z" fill="white"/>
<path d="M1.97656 18.7773H9.3955C9.20047 18.163 9.06641 17.5218 9.06641 16.8438H1.97656C1.62061 16.8438 1.33203 17.1323 1.33203 17.4883V18.1328C1.33203 18.4888 1.62061 18.7773 1.97656 18.7773Z" fill="white"/>
<path d="M1.97656 12.332H10.9205C12.0905 11.1414 13.7146 10.3984 15.5117 10.3984H1.97656C1.62061 10.3984 1.33203 10.687 1.33203 11.043V11.6875C1.33203 12.0435 1.62061 12.332 1.97656 12.332Z" fill="white"/>
</g>
<defs>
<clipPath id="clip0">
<rect width="22" height="22" fill="white"/>
</clipPath>
</defs>
</svg>
