<svg width="22" height="22" viewBox="0 0 22 22" fill="none" xmlns="http://www.w3.org/2000/svg">
<path d="M15.1797 8.51172C12.3319 8.51172 10.0234 10.8202 10.0234 13.668C10.0234 16.5156 12.3319 18.8242 15.1797 18.8242C18.0274 18.8242 20.3359 16.5156 20.3359 13.668C20.3359 10.8202 18.0274 8.51172 15.1797 8.51172ZM16.2597 15.9876C16.1201 16.0573 15.9737 16.1123 15.824 16.1539V16.332C15.824 16.6879 15.5354 16.9765 15.1795 16.9765C14.8235 16.9765 14.5349 16.6879 14.5349 16.332V16.174C14.2666 16.1065 14.0164 15.9929 13.8045 15.834C13.5197 15.6204 13.462 15.2164 13.6756 14.9316C13.8892 14.6469 14.2932 14.5891 14.5779 14.8027C14.8357 14.9961 15.3316 15.0104 15.6832 14.8346C15.8245 14.7639 15.9008 14.6789 15.9008 14.6347C15.9008 14.5576 15.9008 14.5457 15.815 14.4999C15.6468 14.4102 15.3495 14.355 15.0619 14.3017C14.678 14.2304 14.281 14.1568 13.937 13.9732C13.4346 13.7051 13.1691 13.2652 13.1691 12.7011C13.1691 12.1364 13.5077 11.6432 14.0982 11.348C14.2381 11.278 14.3848 11.2227 14.5349 11.181V11.0039C14.5349 10.6479 14.8235 10.3593 15.1795 10.3593C15.5354 10.3593 15.824 10.6479 15.824 11.0039V11.1617C16.0923 11.2293 16.3425 11.3429 16.5545 11.5019C16.8393 11.7155 16.897 12.1195 16.6834 12.4042C16.4698 12.689 16.0659 12.7467 15.781 12.5331C15.5228 12.3395 15.0265 12.3251 14.6746 12.501C14.5325 12.5721 14.4582 12.6555 14.4582 12.7011C14.4582 12.7783 14.4582 12.7901 14.5439 12.8359C14.7121 12.9257 15.0095 12.9809 15.297 13.0342C15.681 13.1054 16.0779 13.1791 16.422 13.3627C16.9243 13.6308 17.1899 14.0707 17.1899 14.6347C17.1899 15.1989 16.8508 15.692 16.2597 15.9876Z" fill="#12CA9E"/>
<path d="M4.22266 5.93359H15.8242C16.1802 5.93359 16.4688 5.64502 16.4688 5.28906V4.64453C16.4688 4.28858 16.1802 4 15.8242 4H4.22266C3.8667 4 3.57812 4.28858 3.57812 4.64453V5.28906C3.57812 5.64502 3.8667 5.93359 4.22266 5.93359Z" fill="#12CA9E"/>
<path d="M2.28906 17.5352V18.1797C2.28906 18.5356 2.57764 18.8242 2.93359 18.8242H11.3524C10.6531 18.3036 10.072 17.6468 9.63096 16.8906H2.93359C2.57764 16.8906 2.28906 17.1792 2.28906 17.5352Z" fill="#12CA9E"/>
<path d="M2.28906 11.0898V11.7344C2.28906 12.0903 2.57764 12.3789 2.93359 12.3789H8.86466C9.00658 11.6825 9.2836 11.0408 9.63096 10.4453H2.93359C2.57764 10.4453 2.28906 10.7339 2.28906 11.0898Z" fill="#12CA9E"/>
<path d="M1.64453 15.6016H9.06347C8.86844 14.9872 8.73438 14.346 8.73438 13.668H1.64453C1.28858 13.668 1 13.9565 1 14.3125V14.957C1 15.313 1.28858 15.6016 1.64453 15.6016Z" fill="#12CA9E"/>
<path d="M1.64453 9.15625H10.5884C11.7585 7.96563 13.3825 7.22266 15.1797 7.22266H1.64453C1.28858 7.22266 1 7.51123 1 7.86719V8.51172C1 8.86767 1.28858 9.15625 1.64453 9.15625Z" fill="#12CA9E"/>
</svg>
