<svg width="15" height="16" viewBox="0 0 15 16" fill="none" xmlns="http://www.w3.org/2000/svg">
<path d="M7.5 12.8005V3.12453L3.03437 4.98408C3.29688 8.61569 5.07188 11.316 7.5 12.8005ZM14.0781 2.6151L8.07812 0.114857C7.89536 0.0390305 7.69943 0 7.50156 0C7.30369 0 7.10777 0.0390305 6.925 0.114857L0.925 2.6151C0.365625 2.84637 0 3.3933 0 3.99961C0 10.2033 3.57812 14.4913 6.92188 15.8851C7.29063 16.0383 7.70625 16.0383 8.075 15.8851C10.7531 14.7694 15 10.9159 15 3.99961C15 3.3933 14.6344 2.84637 14.0781 2.6151ZM7.5 14.5006C4.45312 13.2318 1.5 9.29075 1.5 3.99961L7.5 1.49937L13.5 3.99961C13.5 9.43139 10.425 13.2818 7.5 14.5006Z" fill="#F79A2E"/>
</svg>
