<svg width="20" height="22" viewBox="0 0 20 22" fill="none" xmlns="http://www.w3.org/2000/svg">
<path fill-rule="evenodd" clip-rule="evenodd" d="M18.8074 6.62337L18.185 5.54328C17.6584 4.62936 16.4914 4.31408 15.5763 4.83847V4.83847C15.1406 5.0951 14.6208 5.16791 14.1314 5.04084C13.6421 4.91378 13.2233 4.59727 12.9676 4.16113C12.803 3.8839 12.7146 3.56815 12.7113 3.2458V3.2458C12.7261 2.72898 12.5311 2.22816 12.1708 1.85743C11.8104 1.48669 11.3153 1.27762 10.7982 1.27783H9.54423C9.0377 1.27783 8.55205 1.47967 8.19473 1.8387C7.83742 2.19773 7.63791 2.68435 7.64034 3.19088V3.19088C7.62533 4.23668 6.77321 5.07657 5.7273 5.07646C5.40494 5.07311 5.08919 4.9847 4.81197 4.82017V4.82017C3.89679 4.29577 2.72985 4.61105 2.20327 5.52497L1.53508 6.62337C1.00914 7.53615 1.32013 8.70236 2.23073 9.23207V9.23207C2.82263 9.5738 3.18726 10.2053 3.18726 10.8888C3.18726 11.5723 2.82263 12.2038 2.23073 12.5456V12.5456C1.32129 13.0717 1.00996 14.2351 1.53508 15.1451V15.1451L2.16666 16.2344C2.41338 16.6795 2.82734 17.0081 3.31693 17.1472C3.80652 17.2863 4.33137 17.2247 4.77535 16.9758V16.9758C5.21181 16.7211 5.73192 16.6513 6.22007 16.782C6.70822 16.9126 7.12397 17.2328 7.3749 17.6714C7.53943 17.9486 7.62784 18.2644 7.63119 18.5868V18.5868C7.63119 19.6433 8.48769 20.4998 9.54423 20.4998H10.7982C11.8512 20.4998 12.7062 19.6489 12.7113 18.5959V18.5959C12.7088 18.0878 12.9096 17.5998 13.2689 17.2405C13.6282 16.8812 14.1162 16.6804 14.6243 16.6829C14.9459 16.6915 15.2604 16.7795 15.5397 16.9392V16.9392C16.4524 17.4651 17.6186 17.1541 18.1484 16.2435V16.2435L18.8074 15.1451C19.0625 14.7073 19.1325 14.1858 19.0019 13.6961C18.8714 13.2065 18.551 12.7891 18.1117 12.5364V12.5364C17.6725 12.2837 17.3521 11.8663 17.2215 11.3767C17.091 10.8871 17.161 10.3656 17.4161 9.92772C17.582 9.63809 17.8221 9.39795 18.1117 9.23207V9.23207C19.0169 8.70265 19.3271 7.54325 18.8074 6.63252V6.63252V6.62337Z" stroke="#56606D" stroke-width="1.5" stroke-linecap="round" stroke-linejoin="round"/>
<circle cx="10.1752" cy="10.8886" r="2.63616" stroke="#56606D" stroke-width="1.5" stroke-linecap="round" stroke-linejoin="round"/>
</svg>
