<svg width="48" height="48" viewBox="0 0 48 48" fill="none" xmlns="http://www.w3.org/2000/svg">
<rect opacity="0.1" width="48" height="48" rx="10" fill="#12CA9E"/>
<g clip-path="url(#clip0)">
<path d="M15.2695 20.1328C15.2695 24.9792 19.2123 28.9219 24.0586 28.9219C28.905 28.9219 32.8477 24.9792 32.8477 20.1328C32.8477 15.2865 28.905 11.3438 24.0586 11.3438C19.2123 11.3438 15.2695 15.2865 15.2695 20.1328ZM24.0586 12.5156C28.2588 12.5156 31.6758 15.9326 31.6758 20.1328C31.6758 24.333 28.2588 27.75 24.0586 27.75C19.8584 27.75 16.4414 24.333 16.4414 20.1328C16.4414 15.9326 19.8584 12.5156 24.0586 12.5156Z" fill="#12CA9E"/>
<path d="M18.6318 19.0881L20.903 21.3259L20.3804 24.471C20.344 24.69 20.4344 24.9107 20.6141 25.0411C20.7936 25.1716 21.0314 25.1892 21.2284 25.0872L24.0581 23.6177L26.8876 25.0872C27.083 25.1885 27.3208 25.1728 27.5019 25.0411C27.6816 24.9107 27.772 24.69 27.7356 24.471L27.213 21.3259L29.4842 19.0881C29.6424 18.9325 29.6989 18.7009 29.6303 18.4896C29.5616 18.2786 29.3796 18.1246 29.1601 18.0914L26.0082 17.6169L24.582 14.7648C24.4829 14.5663 24.2799 14.4409 24.0581 14.4409C23.8361 14.4409 23.6333 14.5663 23.534 14.7648L22.1078 17.6169L18.9559 18.0914C18.7364 18.1243 18.5544 18.2786 18.4857 18.4896C18.4171 18.7009 18.4738 18.9325 18.6318 19.0881ZM22.5832 18.7304C22.7718 18.702 22.9348 18.5837 23.0201 18.4132L24.0581 16.337L25.0961 18.4132C25.1815 18.5837 25.3444 18.702 25.533 18.7304L27.8271 19.0758L26.1739 20.7043C26.0382 20.8382 25.9759 21.0298 26.007 21.2179L26.3874 23.5069L24.328 22.4376C24.2435 22.3937 24.1508 22.3717 24.0581 22.3717C23.9654 22.3717 23.8727 22.3937 23.788 22.4376L21.7285 23.5069L22.109 21.2179C22.1403 21.0298 22.0781 20.8382 21.9421 20.7043L20.2891 19.0758L22.5832 18.7304Z" fill="#12CA9E"/>
<path d="M24.6445 9.58594C24.6445 9.90958 24.3822 10.1719 24.0586 10.1719C23.735 10.1719 23.4727 9.90958 23.4727 9.58594C23.4727 9.2623 23.735 9 24.0586 9C24.3822 9 24.6445 9.2623 24.6445 9.58594Z" fill="#12CA9E"/>
<path d="M21.2971 9.34552C16.3682 10.6037 12.9258 15.0396 12.9258 20.133C12.9258 23.2963 14.2558 26.2771 16.5906 28.3881L13.0606 34.6093C12.9471 34.8096 12.9613 35.0577 13.0968 35.2435C13.2323 35.4296 13.4639 35.5191 13.6893 35.4722L17.6982 34.6397L19.1072 38.6101C19.1836 38.8262 19.3793 38.9775 19.6078 38.9979C19.8362 39.0182 20.0552 38.9031 20.1685 38.7038L24.0586 31.8648L27.9485 38.7038C28.0533 38.888 28.2483 38.9999 28.4575 38.9999C28.4747 38.9999 28.4921 38.9993 28.5092 38.9979C28.7376 38.9775 28.9333 38.826 29.01 38.6101L30.4188 34.6397L34.4277 35.4722C34.6529 35.5189 34.8847 35.4294 35.0202 35.2435C35.156 35.0577 35.1699 34.8096 35.0564 34.6093L31.5264 28.3881C33.8612 26.2771 35.1912 23.2963 35.1912 20.133C35.1912 15.0396 31.7488 10.6037 26.8201 9.34552C26.5063 9.26541 26.1874 9.4547 26.1073 9.76827C26.0272 10.0818 26.2165 10.4009 26.5301 10.481C30.9397 11.6066 34.0196 15.5757 34.0196 20.133C34.0196 25.6795 29.5149 30.0939 24.0586 30.0939C18.5984 30.0939 14.0977 25.6758 14.0977 20.133C14.0977 15.5757 17.1773 11.6066 21.5869 10.481C21.9005 10.4009 22.0898 10.0818 22.0099 9.76827C21.9298 9.4547 21.6109 9.26541 21.2971 9.34552ZM19.7833 37.0112L18.6318 33.7663C18.5339 33.4903 18.2473 33.3289 17.9605 33.3884L14.7188 34.0616L17.5126 29.1379C19.1415 30.3221 21.0703 31.0435 23.076 31.2221L19.7833 37.0112ZM30.1565 33.3884C29.8699 33.3289 29.5831 33.4903 29.4852 33.7663L28.3339 37.0112L25.041 31.2221C27.0469 31.0435 28.9755 30.3221 30.6046 29.1379L33.3984 34.0616L30.1565 33.3884Z" fill="#12CA9E"/>
</g>
<defs>
<clipPath id="clip0">
<rect width="30" height="30" fill="white" transform="translate(9 9)"/>
</clipPath>
</defs>
</svg>
