<svg width="18" height="18" viewBox="0 0 18 18" fill="none" xmlns="http://www.w3.org/2000/svg">
<path fill-rule="evenodd" clip-rule="evenodd" d="M9 18C13.9706 18 18 13.9706 18 9C18 4.02944 13.9706 0 9 0C4.02944 0 0 4.02944 0 9C0 13.9706 4.02944 18 9 18ZM9.73828 10.0117C9.89062 10.1875 9.9668 10.4297 9.9668 10.7383C9.9668 11.0156 9.89062 11.2344 9.73828 11.3945C9.58594 11.5508 9.37695 11.6289 9.11133 11.6289C8.74805 11.6289 8.4668 11.5137 8.26758 11.2832C8.07227 11.0488 7.97461 10.709 7.97461 10.2637H6C6 11.0723 6.22656 11.7246 6.67969 12.2207C7.13672 12.7129 7.79102 13.0039 8.64258 13.0938V14.2773H9.57422V13.0996C10.3047 13.0293 10.8809 12.7832 11.3027 12.3613C11.7285 11.9395 11.9414 11.3945 11.9414 10.7266C11.9414 10.332 11.875 9.99414 11.7422 9.71289C11.6094 9.43164 11.4258 9.18555 11.1914 8.97461C10.957 8.76367 10.6777 8.57617 10.3535 8.41211C10.0332 8.24414 9.69141 8.08398 9.32812 7.93164C8.96484 7.77539 8.70117 7.61328 8.53711 7.44531C8.37305 7.27344 8.29102 7.04297 8.29102 6.75391C8.29102 6.46875 8.36133 6.24609 8.50195 6.08594C8.64648 5.92188 8.84766 5.83984 9.10547 5.83984C9.39453 5.83984 9.61719 5.94922 9.77344 6.16797C9.92969 6.38672 10.0078 6.69922 10.0078 7.10547H11.9883C11.9883 6.36328 11.7832 5.75195 11.373 5.27148C10.9668 4.78711 10.4062 4.49219 9.69141 4.38672V3.12695H8.75977V4.36328C8.01758 4.43359 7.42383 4.68359 6.97852 5.11328C6.5332 5.53906 6.31055 6.08203 6.31055 6.74219C6.31055 7.13672 6.37305 7.47266 6.49805 7.75C6.62305 8.02734 6.80273 8.27148 7.03711 8.48242C7.27148 8.69336 7.55078 8.87891 7.875 9.03906C8.19922 9.19922 8.55273 9.35742 8.93555 9.51367C9.31836 9.66992 9.58594 9.83594 9.73828 10.0117Z" fill="#79828D"/>
</svg>
