<svg width="17" height="17" viewBox="0 0 17 17" fill="none" xmlns="http://www.w3.org/2000/svg">
<path d="M15.6445 2.98828C15.457 2.42578 15.1582 1.93945 14.748 1.5293C14.3379 1.11914 13.8574 0.826172 13.3066 0.650391L13.2715 0.632812C12.5098 0.433594 11.6895 0.28125 10.8105 0.175781C9.94336 0.0585938 9.05273 0 8.13867 0C7.22461 0 6.32227 0.0585938 5.43164 0.175781C4.55273 0.292969 3.69141 0.457031 2.84766 0.667969L3.00586 0.632812H2.98828C2.42578 0.820312 1.93945 1.125 1.5293 1.54688C1.11914 1.95703 0.820312 2.43164 0.632812 2.9707V3.00586C0.433594 3.7793 0.275391 4.59961 0.158203 5.4668C0.0527344 6.33398 0 7.22461 0 8.13867C0 9.05273 0.0527344 9.95508 0.158203 10.8457C0.275391 11.7246 0.445312 12.5918 0.667969 13.4473L0.632812 13.2891C0.820312 13.8516 1.11914 14.3438 1.5293 14.7656C1.93945 15.1758 2.41992 15.4688 2.9707 15.6445H3.00586C3.76758 15.8555 4.58203 16.0137 5.44922 16.1191C6.32812 16.2246 7.22461 16.2832 8.13867 16.2949C9.05273 16.2832 9.94922 16.2188 10.8281 16.1016C11.7188 15.9961 12.5859 15.832 13.4297 15.6094L13.2891 15.6445C13.8516 15.457 14.3379 15.1582 14.748 14.748C15.1582 14.3379 15.457 13.8574 15.6445 13.3066V13.2891C15.8438 12.5156 15.9961 11.6953 16.1016 10.8281C16.2188 9.94922 16.2773 9.05273 16.2773 8.13867C16.2773 7.22461 16.2188 6.32812 16.1016 5.44922C15.9961 4.55859 15.832 3.69141 15.6094 2.84766L15.6445 2.98828ZM8.13867 3.39258C8.83008 3.39258 9.41602 3.63867 9.89648 4.13086C10.3887 4.62305 10.6348 5.21484 10.6348 5.90625C10.6348 6.59766 10.3887 7.18945 9.89648 7.68164C9.41602 8.16211 8.83008 8.40234 8.13867 8.40234C7.44727 8.40234 6.85547 8.16211 6.36328 7.68164C5.87109 7.18945 5.625 6.59766 5.625 5.90625C5.625 5.21484 5.87109 4.62305 6.36328 4.13086C6.85547 3.63867 7.44727 3.39258 8.13867 3.39258ZM11.8477 12.8145C11.8008 12.8379 11.748 12.8555 11.6895 12.8672C11.6309 12.8789 11.5723 12.8848 11.5137 12.8848C11.373 12.8848 11.2383 12.8496 11.1094 12.7793C10.9922 12.709 10.9043 12.6094 10.8457 12.4805C10.5879 11.9883 10.2188 11.5898 9.73828 11.2852C9.25781 10.9688 8.72461 10.8105 8.13867 10.8105C7.55273 10.8105 7.01953 10.9629 6.53906 11.2676C6.05859 11.5723 5.68945 11.9707 5.43164 12.4629V12.4805C5.37305 12.5977 5.2793 12.6973 5.15039 12.7793C5.0332 12.8496 4.9043 12.8848 4.76367 12.8848C4.55273 12.8848 4.37109 12.8145 4.21875 12.6738C4.07812 12.5215 4.00781 12.3398 4.00781 12.1289C4.00781 12.0703 4.01367 12.0117 4.02539 11.9531C4.04883 11.8945 4.07227 11.8359 4.0957 11.7773V11.7949C4.48242 11.0566 5.0332 10.459 5.74805 10.002C6.46289 9.54492 7.25977 9.31641 8.13867 9.31641C9.01758 9.31641 9.81445 9.54492 10.5293 10.002C11.2441 10.459 11.7891 11.0508 12.1641 11.7773L12.1816 11.8125C12.2051 11.8594 12.2227 11.9121 12.2344 11.9707C12.2578 12.0293 12.2695 12.0879 12.2695 12.1465C12.2695 12.2871 12.2285 12.416 12.1465 12.5332C12.0762 12.6504 11.9824 12.7441 11.8652 12.8145H11.8477ZM7.13672 5.90625C7.13672 5.625 7.23047 5.39062 7.41797 5.20312C7.61719 5.00391 7.85742 4.9043 8.13867 4.9043C8.4082 4.9043 8.64258 5.00391 8.8418 5.20312C9.04102 5.39062 9.14062 5.625 9.14062 5.90625C9.14062 6.17578 9.04102 6.41016 8.8418 6.60938C8.64258 6.80859 8.4082 6.9082 8.13867 6.9082C7.85742 6.9082 7.61719 6.80859 7.41797 6.60938C7.23047 6.41016 7.13672 6.17578 7.13672 5.90625Z" fill="#79828D"/>
</svg>
