<svg width="48" height="48" viewBox="0 0 48 48" fill="none" xmlns="http://www.w3.org/2000/svg">
<rect opacity="0.1" width="48" height="48" rx="10" fill="#ED1B1B"/>
<path d="M30.1738 26.1863C32.3287 24.4048 33.7041 21.7123 33.7041 18.7046C33.7041 13.3535 29.3506 9 23.9995 9C18.6484 9 14.2949 13.3535 14.2949 18.7046C14.2949 21.7123 15.6704 24.4048 17.8252 26.1863V29.3429H15.1152V31.7924L23.9995 39L32.8838 31.7924V29.3428H30.1738V26.1863ZM16.0527 18.7046C16.0527 14.3227 19.6176 10.7578 23.9995 10.7578C28.3814 10.7578 31.9463 14.3227 31.9463 18.7046C31.9463 23.0865 28.3814 26.6514 23.9995 26.6514C19.6176 26.6514 16.0527 23.0865 16.0527 18.7046ZM30.9464 31.1007L23.9995 36.7365L17.0526 31.1006H19.583V27.3447C20.9085 28.025 22.41 28.4092 23.9995 28.4092C25.589 28.4092 27.0905 28.025 28.416 27.3447V31.1006H30.9464V31.1007Z" fill="#ED1B1B"/>
<path d="M23.4981 19.5836H24.5033C25.0278 19.5836 25.4545 20.0102 25.4545 20.5347C25.4545 21.0592 25.0278 21.4859 24.5033 21.4859H23.4802C22.9736 21.4859 22.5615 21.0737 22.5615 20.5671H20.8037C20.8037 21.9214 21.8149 23.0432 23.1217 23.2189V24.4703H24.8795V23.2169C26.1957 23.0331 27.2122 21.9006 27.2122 20.5346C27.2122 19.0409 25.997 17.8257 24.5033 17.8257H23.498C22.9736 17.8257 22.5469 17.399 22.5469 16.8745C22.5469 16.3501 22.9736 15.9234 23.498 15.9234H24.4802C25.0053 15.9234 25.4326 16.3505 25.4326 16.8756H27.1904C27.1904 15.517 26.1852 14.3889 24.8795 14.1952V12.939H23.1217V14.1924C21.8055 14.3762 20.7891 15.5087 20.7891 16.8746C20.7891 18.3683 22.0044 19.5836 23.4981 19.5836Z" fill="#ED1B1B"/>
</svg>
