<svg width="40" height="40" viewBox="0 0 40 40" fill="none" xmlns="http://www.w3.org/2000/svg">
<rect width="40" height="40" rx="10" fill="#79828D"/>
<path d="M15.5385 19.8354C17.6044 19.8354 19.0769 18.3165 19.0769 16.4177C19.0769 14.519 17.6044 13 15.5385 13C13.5165 13 12 14.519 12 16.4177C12 18.3165 13.5165 19.8354 15.5385 19.8354ZM14.4176 27.8312L16.9011 27.8101L25.6264 13.1477L23.1209 13.1688L14.4176 27.8312ZM15.5385 17.8945C14.7033 17.8945 14.0879 17.2616 14.0879 16.4177C14.0879 15.5949 14.7033 14.9409 15.5385 14.9409C16.3956 14.9409 16.989 15.5949 16.989 16.4177C16.989 17.2616 16.3956 17.8945 15.5385 17.8945ZM24.4615 28C26.5275 28 28 26.481 28 24.5823C28 22.6835 26.5275 21.1646 24.4615 21.1646C22.4176 21.1646 20.9231 22.6835 20.9231 24.5823C20.9231 26.481 22.4176 28 24.4615 28ZM24.4615 26.0591C23.6264 26.0591 23.011 25.4262 23.011 24.5823C23.011 23.7595 23.6044 23.1055 24.4615 23.1055C25.3187 23.1055 25.9121 23.7595 25.9121 24.5823C25.9121 25.4262 25.2967 26.0591 24.4615 26.0591Z" fill="white"/>
</svg>
