<svg width="40" height="40" viewBox="0 0 40 40" fill="none" xmlns="http://www.w3.org/2000/svg">
<rect width="40" height="40" rx="10" fill="#8ADDC1"/>
<path d="M24.1797 17.5117C21.3319 17.5117 19.0234 19.8202 19.0234 22.668C19.0234 25.5156 21.3319 27.8242 24.1797 27.8242C27.0274 27.8242 29.3359 25.5156 29.3359 22.668C29.3359 19.8202 27.0274 17.5117 24.1797 17.5117ZM25.2597 24.9876C25.1201 25.0573 24.9737 25.1123 24.824 25.1539V25.332C24.824 25.6879 24.5354 25.9765 24.1795 25.9765C23.8235 25.9765 23.5349 25.6879 23.5349 25.332V25.174C23.2666 25.1065 23.0164 24.9929 22.8045 24.834C22.5197 24.6204 22.462 24.2164 22.6756 23.9316C22.8892 23.6469 23.2932 23.5891 23.5779 23.8027C23.8357 23.9961 24.3316 24.0104 24.6832 23.8346C24.8245 23.7639 24.9008 23.6789 24.9008 23.6347C24.9008 23.5576 24.9008 23.5457 24.815 23.4999C24.6468 23.4102 24.3495 23.355 24.0619 23.3017C23.678 23.2304 23.281 23.1568 22.937 22.9732C22.4346 22.7051 22.1691 22.2652 22.1691 21.7011C22.1691 21.1364 22.5077 20.6432 23.0982 20.348C23.2381 20.278 23.3848 20.2227 23.5349 20.181V20.0039C23.5349 19.6479 23.8235 19.3593 24.1795 19.3593C24.5354 19.3593 24.824 19.6479 24.824 20.0039V20.1617C25.0923 20.2293 25.3425 20.3429 25.5545 20.5019C25.8393 20.7155 25.897 21.1195 25.6834 21.4042C25.4698 21.689 25.0659 21.7467 24.781 21.5331C24.5228 21.3395 24.0265 21.3251 23.6746 21.501C23.5325 21.5721 23.4582 21.6555 23.4582 21.7011C23.4582 21.7783 23.4582 21.7901 23.5439 21.8359C23.7121 21.9257 24.0095 21.9809 24.297 22.0342C24.681 22.1054 25.0779 22.1791 25.422 22.3627C25.9243 22.6308 26.1899 23.0707 26.1899 23.6347C26.1899 24.1989 25.8508 24.692 25.2597 24.9876Z" fill="white"/>
<path d="M13.2227 14.9336H24.8242C25.1802 14.9336 25.4688 14.645 25.4688 14.2891V13.6445C25.4688 13.2886 25.1802 13 24.8242 13H13.2227C12.8667 13 12.5781 13.2886 12.5781 13.6445V14.2891C12.5781 14.645 12.8667 14.9336 13.2227 14.9336Z" fill="white"/>
<path d="M11.2891 26.5352V27.1797C11.2891 27.5356 11.5776 27.8242 11.9336 27.8242H20.3524C19.6531 27.3036 19.072 26.6468 18.631 25.8906H11.9336C11.5776 25.8906 11.2891 26.1792 11.2891 26.5352Z" fill="white"/>
<path d="M11.2891 20.0898V20.7344C11.2891 21.0903 11.5776 21.3789 11.9336 21.3789H17.8647C18.0066 20.6825 18.2836 20.0408 18.631 19.4453H11.9336C11.5776 19.4453 11.2891 19.7339 11.2891 20.0898Z" fill="white"/>
<path d="M10.6445 24.6016H18.0635C17.8684 23.9872 17.7344 23.346 17.7344 22.668H10.6445C10.2886 22.668 10 22.9565 10 23.3125V23.957C10 24.313 10.2886 24.6016 10.6445 24.6016Z" fill="white"/>
<path d="M10.6445 18.1562H19.5884C20.7585 16.9656 22.3825 16.2227 24.1797 16.2227H10.6445C10.2886 16.2227 10 16.5112 10 16.8672V17.5117C10 17.8677 10.2886 18.1562 10.6445 18.1562Z" fill="white"/>
</svg>
