<svg width="40" height="40" viewBox="0 0 40 40" fill="none" xmlns="http://www.w3.org/2000/svg">
<rect width="40" height="40" rx="10" fill="#FFA6A6"/>
<path d="M25 23.4087C25 18.5163 18.4989 19.8319 18.4989 17.3652C18.4989 16.6663 19.0389 16.1524 20.0756 16.1524C21.0259 16.1524 21.7387 16.6663 22.041 17.7763L24.784 16.769C24.3952 15.3301 23.2289 14.2817 21.5443 13.9323V12H18.9741V13.8912C16.7927 14.2817 15.5832 15.7001 15.5832 17.5707C15.5832 22.1959 22.041 20.8803 22.041 23.4704C22.041 24.2926 21.4147 24.8271 20.2916 24.8271C19.0173 24.8271 18.0886 24.1282 17.7646 22.8742L15 23.8815C15.5616 25.6904 17.0302 26.8416 18.9525 27.1294V29H21.5227V27.0677C23.7041 26.636 25 25.2588 25 23.4087Z" fill="white"/>
</svg>
