<svg width="160" height="159" viewBox="0 0 160 159" fill="none" xmlns="http://www.w3.org/2000/svg">
<path d="M31.3638 92.3551C31.4168 92.3241 31.5948 92.4991 31.7638 92.7471C31.9328 92.9951 32.0208 93.2301 31.9638 93.2651C31.9068 93.3001 31.7368 93.1261 31.5638 92.8731C31.3908 92.6201 31.3108 92.3901 31.3638 92.3551Z" fill="#56606D"/>
<path d="M29.5 88.4229C29.7371 88.7066 29.9135 89.0361 30.018 89.3909C30.1899 89.7168 30.2953 90.0738 30.328 90.4409C30.0908 90.1569 29.9142 89.8275 29.809 89.4729C29.6334 89.1485 29.5281 88.7907 29.5 88.4229Z" fill="#56606D"/>
<path d="M28.4874 84.187C28.7685 84.866 28.9047 85.5963 28.8873 86.331C28.7137 86.0058 28.6086 85.6484 28.5784 85.281C28.4756 84.926 28.4447 84.5541 28.4874 84.187Z" fill="#56606D"/>
<path d="M28.3343 79.832C28.4384 80.1854 28.4724 80.5556 28.4343 80.922C28.4662 81.2905 28.4216 81.6616 28.3033 82.012C28.1981 81.6575 28.1641 81.2857 28.2033 80.918C28.1702 80.5508 28.2149 80.1808 28.3343 79.832Z" fill="#56606D"/>
<path d="M29.0359 75.5342C29.0716 75.9017 29.0317 76.2726 28.9189 76.6242C28.8754 76.9906 28.7599 77.3447 28.5789 77.6662C28.5436 77.2987 28.5834 76.9278 28.6959 76.5762C28.7406 76.2101 28.8561 75.8562 29.0359 75.5342Z" fill="#56606D"/>
<path d="M30.6059 71.4718C30.565 71.839 30.4478 72.1936 30.2619 72.5128C30.143 72.8624 29.9564 73.1852 29.7129 73.4628C29.7561 73.0961 29.8731 72.742 30.0569 72.4218C30.3049 71.8628 30.5489 71.4408 30.6059 71.4718Z" fill="#56606D"/>
<path d="M33.0068 67.8368C32.8866 68.1853 32.6967 68.5058 32.4488 68.7788C32.2539 69.0912 32.0042 69.366 31.7118 69.5897C31.6518 69.5507 31.9118 69.1317 32.2658 68.6437C32.6198 68.1557 32.9598 67.7988 33.0068 67.8368Z" fill="#56606D"/>
<path d="M35.9379 64.61C35.9809 64.654 35.6808 65.042 35.2658 65.478C34.8508 65.914 34.4768 66.232 34.4338 66.188C34.3908 66.144 34.6859 65.756 35.1049 65.32C35.5239 64.884 35.8939 64.563 35.9379 64.61Z" fill="#56606D"/>
<path d="M39.0053 61.5069C39.0493 61.5509 38.7442 61.9339 38.3212 62.3609C37.8982 62.7879 37.5213 63.1019 37.4753 63.0609C37.4293 63.0199 37.7373 62.6339 38.1603 62.2059C38.5833 61.7779 38.9613 61.4639 39.0053 61.5069Z" fill="#56606D"/>
<path d="M41.8722 58.2212C41.9252 58.2602 41.6542 58.6702 41.2722 59.1362C40.8902 59.6022 40.5402 59.9512 40.4922 59.9082C40.6287 59.5646 40.8351 59.253 41.0982 58.9932C41.4712 58.5312 41.8242 58.1862 41.8722 58.2212Z" fill="#56606D"/>
<path d="M44.0957 54.481C44.0572 54.851 43.9318 55.2066 43.7297 55.519C43.4507 56.059 43.1497 56.452 43.0977 56.419C43.3392 55.7302 43.6758 55.0786 44.0977 54.483L44.0957 54.481Z" fill="#56606D"/>
<path d="M45.1543 50.271C45.2464 51.0065 45.1223 51.7528 44.7973 52.419C44.775 52.0538 44.8119 51.6874 44.9063 51.334C44.9326 50.9688 45.0163 50.6101 45.1543 50.271Z" fill="#56606D"/>
<path d="M44.8326 45.938C45.0258 46.2556 45.1365 46.6166 45.1546 46.988C45.2483 47.3481 45.2527 47.7257 45.1676 48.088C45.0299 47.7473 44.9502 47.386 44.9316 47.019C44.8404 46.6664 44.8069 46.3013 44.8326 45.938Z" fill="#56606D"/>
<path d="M43.1211 41.9499C43.1741 41.9159 43.4911 42.2949 43.7801 42.8309C43.9869 43.1408 44.114 43.497 44.1501 43.8679C44.0891 43.8939 43.8621 43.4619 43.5791 42.9399C43.3766 42.6353 43.2221 42.3014 43.1211 41.9499Z" fill="#56606D"/>
<path d="M40.083 38.855C40.4401 38.9622 40.764 39.1587 41.024 39.426C41.495 39.818 41.8 40.211 41.753 40.249C41.706 40.287 41.334 39.979 40.876 39.6C40.418 39.221 40.043 38.908 40.083 38.855Z" fill="#56606D"/>
<path d="M36.1211 37.0852C36.4937 37.0613 36.8665 37.13 37.2061 37.2852C37.5689 37.3697 37.9047 37.5437 38.1831 37.7912C37.8197 37.7486 37.4651 37.6498 37.1321 37.4982C36.7735 37.4207 36.4314 37.2809 36.1211 37.0852Z" fill="#56606D"/>
<path d="M31.7871 36.8891C32.1205 36.7229 32.491 36.6451 32.8631 36.6631C33.2334 36.6079 33.6117 36.6467 33.9631 36.7761C33.244 36.8889 32.5151 36.9268 31.7881 36.8891H31.7871Z" fill="#56606D"/>
<path d="M27.7679 38.4929C27.7329 38.4449 28.1079 38.1139 28.6449 37.8259C28.9546 37.617 29.3134 37.4923 29.6859 37.4639C29.4047 37.6967 29.0902 37.8862 28.7529 38.0259C28.4491 38.2288 28.1173 38.3861 27.7679 38.4929Z" fill="#56606D"/>
<path d="M24.7734 41.6271C24.8687 41.2663 25.053 40.9351 25.3094 40.6641C25.6844 40.1811 26.0674 39.8641 26.1094 39.9061C25.9472 40.2354 25.7369 40.5387 25.4854 40.8061C25.1214 41.2701 24.8254 41.6591 24.7734 41.6271Z" fill="#56606D"/>
<path d="M23.3045 45.698C23.2352 45.3304 23.2638 44.9511 23.3875 44.598C23.4405 44.2287 23.5875 43.8792 23.8145 43.583C23.8026 43.9484 23.7352 44.3099 23.6145 44.655C23.5654 45.0165 23.4609 45.3684 23.3045 45.698Z" fill="#56606D"/>
<path d="M23.8238 49.9909C23.4309 49.3597 23.2508 48.6191 23.3098 47.8779C23.465 48.209 23.5691 48.5617 23.6188 48.9239C23.7392 49.2676 23.8082 49.6271 23.8238 49.9909Z" fill="#56606D"/>
<path d="M26.0346 53.7219C25.9866 53.7609 25.6286 53.4219 25.2716 52.9289C25.0235 52.6509 24.8495 52.3149 24.7656 51.9519C24.8226 51.9209 25.1106 52.3139 25.4596 52.7969C25.6991 53.0728 25.8932 53.3851 26.0346 53.7219Z" fill="#56606D"/>
<path d="M29.2416 56.6649C28.8896 56.5489 28.569 56.3535 28.3046 56.0939C27.8346 55.7149 27.5046 55.3399 27.5466 55.2939C27.5886 55.2479 27.9786 55.5379 28.4466 55.9179C28.9146 56.2979 29.2816 56.6129 29.2416 56.6649Z" fill="#56606D"/>
<path d="M33.0198 58.8309C32.655 58.7722 32.3064 58.6387 31.9958 58.4389C31.4558 58.1649 31.0458 57.8989 31.0758 57.8389C31.4392 57.9021 31.787 58.0352 32.0998 58.2309C32.4439 58.3665 32.7568 58.5707 33.0198 58.8309Z" fill="#56606D"/>
<path d="M37.1706 60.1519C36.4299 60.1627 35.6998 59.9745 35.0566 59.6069C35.7849 59.6803 36.4977 59.8641 37.1706 60.1519Z" fill="#56606D"/>
<path d="M41.511 60.3738C41.1689 60.5191 40.7965 60.5788 40.426 60.5478C40.0562 60.5913 39.6813 60.5468 39.332 60.4178C39.687 60.3226 40.0557 60.2888 40.422 60.3178C40.7856 60.2756 41.1537 60.2945 41.511 60.3738Z" fill="#56606D"/>
<path d="M45.7054 59.2539C45.4297 59.5045 45.096 59.6826 44.7343 59.7719C44.397 59.9322 44.0254 60.007 43.6523 59.9899C43.9596 59.7918 44.2975 59.6459 44.6523 59.5579C44.983 59.3962 45.3394 59.2934 45.7054 59.2539Z" fill="#56606D"/>
<path d="M49.3387 56.8701C49.3827 56.9131 49.0517 57.2831 48.5667 57.6541C48.2953 57.9088 47.9662 58.0941 47.6077 58.1941C47.5727 58.1421 47.9517 57.8371 48.4277 57.4711C48.6983 57.2247 49.0057 57.0219 49.3387 56.8701Z" fill="#56606D"/>
<path d="M52.1786 53.575C52.0786 53.9339 51.8949 54.2639 51.6426 54.538C51.2766 55.026 50.9146 55.362 50.8666 55.318C50.8186 55.274 51.1026 54.877 51.4596 54.398C51.8166 53.919 52.1266 53.54 52.1786 53.575Z" fill="#56606D"/>
<path d="M54.066 49.6519C54.0635 50.0246 53.9705 50.3911 53.795 50.7198C53.6887 51.0757 53.5023 51.4024 53.25 51.6749C53.3029 51.3116 53.4161 50.9598 53.585 50.6339C53.6906 50.2824 53.8531 49.9507 54.066 49.6519Z" fill="#56606D"/>
<path d="M54.9101 45.3818C55.0034 46.1147 54.8999 46.8592 54.6101 47.5388C54.5998 46.8088 54.701 46.0814 54.9101 45.3818Z" fill="#56606D"/>
<path d="M54.7974 41.0298C54.9379 41.3707 55.006 41.7371 54.9974 42.1058C55.0658 42.4688 55.0552 42.8423 54.9664 43.2008C54.8284 42.8588 54.7604 42.4926 54.7664 42.1238C54.7044 41.7607 54.7149 41.3888 54.7974 41.0298Z" fill="#56606D"/>
<path d="M53.8504 36.7759C54.0518 37.0869 54.1879 37.4356 54.2504 37.8009C54.3816 38.1455 54.4409 38.5134 54.4244 38.8819C54.223 38.5709 54.0869 38.2221 54.0244 37.8569C53.8929 37.5123 53.8337 37.1443 53.8504 36.7759Z" fill="#56606D"/>
<path d="M52.1816 32.7481C52.2386 32.7181 52.4996 33.1361 52.7616 33.6811C52.9452 34.0029 53.0593 34.3595 53.0966 34.7281C52.854 34.4505 52.6688 34.1277 52.5516 33.7781C52.3634 33.4617 52.2378 33.112 52.1816 32.7481Z" fill="#56606D"/>
<path d="M50.0371 28.9519C50.0901 28.9209 50.3811 29.3139 50.6871 29.8369C50.9063 30.1349 51.0606 30.4756 51.1401 30.8369C50.8679 30.5873 50.6474 30.2866 50.4911 29.9519C50.2773 29.6506 50.1232 29.3112 50.0371 28.9519Z" fill="#56606D"/>
<path d="M47.8789 25.1638C47.9359 25.1328 48.2139 25.5388 48.5059 26.0638C48.717 26.3659 48.8624 26.709 48.9329 27.0708C48.6653 26.8162 48.4519 26.5101 48.3059 26.1708C48.0957 25.8681 47.9503 25.5253 47.8789 25.1638Z" fill="#56606D"/>
<path d="M46.1719 21.1538C46.5652 21.7738 46.8251 22.4689 46.9349 23.1948C46.5415 22.5749 46.2817 21.8798 46.1719 21.1538Z" fill="#56606D"/>
<path d="M45.4325 16.8691C45.5598 17.2139 45.6249 17.5786 45.6245 17.9462C45.6973 18.3062 45.7105 18.6758 45.6635 19.0401C45.4915 18.71 45.4017 18.3434 45.4015 17.9711C45.3257 17.6064 45.3363 17.229 45.4325 16.8691Z" fill="#56606D"/>
<path d="M45.7931 12.5322C45.8305 12.8974 45.8037 13.2663 45.7141 13.6222C45.696 13.9889 45.6166 14.3499 45.4791 14.6902C45.3907 13.9558 45.4991 13.211 45.7931 12.5322Z" fill="#56606D"/>
<path d="M47.2121 8.41699C47.1569 8.78064 47.0388 9.13189 46.8631 9.45499C46.7555 9.80614 46.5892 10.1365 46.3711 10.432C46.382 10.0602 46.4788 9.69604 46.6541 9.368C46.7619 9.01118 46.9532 8.68518 47.2121 8.41699Z" fill="#56606D"/>
<path d="M49.6406 4.80893C49.6886 4.85293 49.4016 5.24393 49.0356 5.71993C48.6696 6.19593 48.3596 6.56993 48.3066 6.53493C48.4129 6.17801 48.6012 5.85094 48.8566 5.57993C49.2266 5.09993 49.5976 4.76893 49.6406 4.80893Z" fill="#56606D"/>
<path d="M52.9154 1.94092C52.9504 1.99392 52.5754 2.30291 52.1004 2.66891C51.6254 3.03491 51.2334 3.31892 51.1894 3.26892C51.1454 3.21892 51.4824 2.85492 51.9614 2.48392C52.2329 2.23132 52.5596 2.04542 52.9154 1.94092Z" fill="#56606D"/>
<path d="M18.1841 112.059C17.1841 90.469 47.6391 63.376 73.8571 67.866C101.557 72.613 125.844 132.617 99.5972 152.822C73.3502 173.027 19.1891 133.955 18.1841 112.059Z" fill="#DBF5E7"/>
<path d="M120.11 86.809C117.604 89.436 133.886 112.609 139.875 113.427C145.864 114.245 145.354 99.8179 141.382 93.2109C137.41 86.6039 123.35 83.407 120.11 86.809Z" fill="#12CA9E"/>
<path d="M132.497 39.2669C127.715 36.6919 122.381 41.6579 119.254 44.6009C112.081 51.5899 106.011 59.6829 99.2053 67.0399C91.6643 75.1339 84.6753 83.2259 76.9493 91.1399C72.5353 95.5549 67.7493 100.34 64.8103 105.855C58.1893 99.4169 52.4873 92.4279 45.1303 86.7259C39.7953 82.6799 30.9673 79.7369 31.1513 89.4849C31.5193 102.177 42.7393 115.785 51.0163 124.432C54.5113 128.111 59.1093 131.974 64.4433 132.158C70.8803 132.526 77.5033 124.8 81.3653 120.57C88.1703 113.213 93.6883 104.936 99.9423 97.3949C108.035 87.4619 116.312 77.7139 124.221 67.5949C129.187 61.3379 144.82 45.8889 132.497 39.2669ZM39.2493 88.7439C38.9916 88.7358 38.7368 88.7995 38.5133 88.9279C37.8118 88.7647 37.1326 88.5176 36.4903 88.1919C37.0389 87.8245 37.9586 88.0085 39.2493 88.7439Z" fill="#12CA9E"/>
<path d="M112.85 0L115.21 7.26199H122.846L116.667 11.75L119.027 19.012L112.85 14.524L106.673 19.012L109.032 11.75L102.854 7.26199H110.49L112.85 0Z" fill="#12CA9E"/>
<path d="M154.204 50.812L155.482 54.745H159.619L156.272 57.176L157.551 61.11L154.204 58.679L150.857 61.11L152.136 57.176L148.789 54.745H152.926L154.204 50.812Z" fill="#F3B410"/>
<path d="M84.1357 25.4131L85.4137 29.3461H89.5507L86.2037 31.7771L87.4827 35.7111L84.1357 33.2801L80.7887 35.7111L82.0677 31.7771L78.7207 29.3461H82.8577L84.1357 25.4131Z" fill="#12CA9E"/>
<path d="M20.2001 14.9028L21.4781 18.8358H25.6152L22.2682 21.2668L23.5471 25.2008L20.2001 22.7698L16.8531 25.2008L18.1322 21.2668L14.7852 18.8358H18.9221L20.2001 14.9028Z" fill="#F3B410"/>
<path d="M7.50101 66.5771L9.271 72.0241H14.998L10.364 75.3902L12.134 80.8372L7.50101 77.4711L2.86398 80.8372L4.634 75.3902L0 72.0241H5.72699L7.50101 66.5771Z" fill="#12CA9E"/>
</svg>
